# xmcd CD database file generated by Grip 3.2.0
# 
# Track frame offsets:
#       150
#       20777
#       42649
#       62568
#       64533
#       82472
#       103217
#       123801
#       143733
#       166143
#       187667
# 
# Disc length: 2815 seconds
# 
# Revision: 12
# Processed by: cddbd v1.5.1PL0 Copyright (c) Steve Scherf et al.
# Submitted via: Grip 3.2.0
# 
DISCID=960afd0b
DTITLE=Every Little Thing - Time to Destination
DYEAR=1998
DGENRE=Latin
TTITLE0=For the moment
TTITLE1=今でも…あなたが好きだから
TTITLE2=Face the change(Album Mix)
TTITLE3=Old Dreams(Instrumental)
TTITLE4=モノクローム
TTITLE5=All along
TTITLE6=Hometown
TTITLE7=出逢った頃のように
TTITLE8=Shapes Of Love
TTITLE9=True colors
TTITLE10=Time goes by(Orchestra Version)
EXTD=YEAR: 1998
EXTT0=
EXTT1=
EXTT2=
EXTT3=
EXTT4=
EXTT5=
EXTT6=
EXTT7=
EXTT8=
EXTT9=
EXTT10=
PLAYORDER=
